<svg xmlns="http://www.w3.org/2000/svg" viewBox="0 0 100 100">
  <defs>
    <linearGradient id="g" x1="0" y1="1" x2="0" y2="0" gradientUnits="objectBoundingBox">
      <stop offset="0%" stop-color="#ff4500"/>
      <stop offset="55%" stop-color="#ff8c00"/>
      <stop offset="100%" stop-color="#ffd700"/>
    </linearGradient>
  </defs>
  <path fill="url(#g)" d="
    M50,5
    C50,5 62,22 58,38
    C68,28 70,14 63,5
    C78,18 83,38 76,56
    C80,48 81,40 78,33
    C90,52 86,73 73,83
    C78,70 72,58 62,57
    C67,70 63,88 50,94
    C37,88 33,70 38,57
    C28,58 22,70 27,83
    C14,73 10,52 22,33
    C19,40 20,48 24,56
    C17,38 22,18 37,5
    C30,14 32,28 42,38
    C38,22 50,5 50,5Z
  "/>
</svg>
